Coordinates
version=1
nRows=8
nColumns=36
inDegrees=yes

Units are S.I. units (second, meters, Newtons, ...)
If the header above contains a line with 'inDegrees', this indicates whether rotational values are in degrees (yes) or radians (no).

endheader
time	pelvis_tilt	pelvis_list	pelvis_rotation	pelvis_tx	pelvis_ty	pelvis_tz	hip_flexion_r	hip_adduction_r	hip_rotation_r	knee_angle_r	knee_angle_r_beta	ankle_angle_r	subtalar_angle_r	mtp_angle_r	hip_flexion_l	hip_adduction_l	hip_rotation_l	knee_angle_l	knee_angle_l_beta	ankle_angle_l	subtalar_angle_l	mtp_angle_l	lumbar_extension	lumbar_bending	lumbar_rotation	arm_flex_r	arm_add_r	arm_rot_r	elbow_flex_r	pro_sup_r	arm_flex_l	arm_add_l	arm_rot_l	elbow_flex_l	pro_sup_l
      3.48333330	    -15.37153180	     -5.78685527	     13.09205072	      0.42488820	      0.88353975	     -0.12401047	     55.21063638	     -8.19691405	     -0.24723520	     54.84716284	      0.95726358	     22.20302510	     -6.96471858	     -7.49999987	     53.90812750	    -13.41197942	    -10.56805981	     56.46679788	      0.98553154	     18.92666001	    -12.48856124	     -7.49999987	    -16.07721107	     -4.74857357	      3.47326887	     30.38005179	    -20.59548153	     16.30682191	    114.68578025	     94.30710464	     24.45902581	    -15.59724694	     25.79128624	    123.69620732	     88.71145481
      3.50000000	    -15.20916484	     -5.78252294	     13.16987052	      0.42316702	      0.89883689	     -0.12549785	     52.98341157	     -8.20233316	     -0.88333289	     51.45668191	      0.89808852	     21.03261176	     -6.19275551	     -7.49999987	     51.77420936	    -12.83487707	    -10.79035448	     53.01284137	      0.92524863	     17.84615297	    -12.02832892	     -7.49999987	    -14.72031727	     -4.40470954	      2.45492256	     28.90633170	    -18.60697032	     17.05717207	    112.10346284	     94.34942374	     21.31720663	    -16.13270313	     23.47044555	    123.78762991	     87.43497416
      3.51666670	    -14.78339215	     -5.76162041	     13.37128954	      0.42400479	      0.90635327	     -0.12655238	     50.61099155	     -8.03043995	     -1.09684167	     48.20388772	      0.84131655	     19.74376929	     -6.42342025	     -7.49999987	     49.44659489	    -12.40138502	    -11.06954792	     49.70079453	      0.86744251	     16.23757979	    -12.20550343	     -7.49999987	    -13.65071240	     -4.33750553	      2.80346344	     26.43154157	    -18.00571986	     16.40654226	    110.50394930	     92.83993556	     19.37279623	    -15.59275854	     23.00843367	    123.09404272	     86.30416434
      3.53333330	    -14.56043096	     -5.88981305	     13.51777957	      0.42694191	      0.91289918	     -0.13119688	     48.46637955	     -7.81958915	     -1.33501582	     44.88834255	      0.78344937	     18.35189004	     -6.91598250	     -7.49999987	     47.63717651	    -11.75173338	    -10.99719539	     46.66185311	      0.81440297	     14.96594979	    -12.73361756	     -7.49999987	    -12.42414507	     -4.05358425	      3.24196790	     24.32533003	    -17.41414876	     15.60509771	    109.42584834	     91.65603674	     15.83863495	    -14.44836676	     22.35964450	    122.51367521	     85.46327951
      3.55000000	    -14.48606463	     -6.18290892	     13.65631539	      0.42775500	      0.91554516	     -0.13138773	     46.75756849	     -7.47866021	     -1.59958531	     42.21331813	      0.73676139	     17.77649528	     -7.01523560	     -7.49999987	     46.41731278	    -11.44908738	    -10.92282483	     44.42372266	      0.77534023	     14.52069763	    -12.86756280	     -7.49999987	    -10.85445228	     -3.51583931	      3.69542561	     22.99292242	    -17.25464731	     15.22016618	    108.23760109	     90.48901611	     13.72056232	    -13.97996352	     22.13365300	    121.68057850	     84.88131179
      3.56666670	    -14.31691899	     -6.32550796	     13.73268215	      0.42635970	      0.92980033	     -0.13212051	     45.11365250	     -7.16058256	     -1.66559879	     39.64924450	      0.69200986	     16.47306234	     -7.31933224	     -7.49999987	     45.21545790	    -11.06121652	    -10.65662345	     42.34940752	      0.73913660	     13.18380306	    -13.28678809	     -7.49999987	     -9.91991221	     -3.22262788	      4.09188523	     21.00915959	    -17.34901074	     15.29168506	    107.69115367	     88.99404190	     10.82133252	    -13.17888892	     22.00161421	    121.72996641	     83.93691503
      3.58333330	    -13.50628321	     -6.43750471	     14.05765562	      0.43624115	      0.94436368	     -0.13512736	     42.22849936	     -6.79342817	     -1.79632936	     36.68443008	      0.64026409	     15.10043318	     -7.32643086	     -7.49999987	     42.71700415	    -10.82729346	    -10.53904160	     39.64836126	      0.69199445	     11.59628116	    -13.03195569	     -7.49999987	     -9.21236427	     -2.67169329	      4.30843803	     19.30789380	    -17.18603205	     15.31133138	    106.48800960	     86.97571163	      9.39420346	    -12.99367587	     22.21767607	    121.11904629	     82.53809375
      3.60000000	    -12.75139555	     -6.49092640	     14.31973473	      0.43476567	      0.95231040	     -0.13624226	     39.67295973	     -6.52033904	     -2.03963797	     33.85583679	      0.59089582	     13.50115123	     -7.33949350	     -7.49999987	     40.50316829	    -10.45021414	    -10.15922009	     37.00833851	      0.64591736	     10.63768356	    -12.49557024	     -7.49999987	     -8.68654150	     -2.09993307	      4.15894736	     17.72852978	    -16.51297974	     15.34631822	    105.40171604	     87.13159554	      8.80813470	    -13.49559996	     22.39957800	    120.41336824	     82.57267125
